Coordinates
version=1
nRows=11
nColumns=40
inDegrees=yes

Units are S.I. units (second, meters, Newtons, ...)
If the header above contains a line with 'inDegrees', this indicates whether rotational values are in degrees (yes) or radians (no).

endheader
time	pelvis_tilt	pelvis_list	pelvis_rotation	pelvis_tx	pelvis_ty	pelvis_tz	hip_flexion_r	hip_adduction_r	hip_rotation_r	knee_angle_r	knee_angle_r_beta	ankle_angle_r	subtalar_angle_r	mtp_angle_r	hip_flexion_l	hip_adduction_l	hip_rotation_l	knee_angle_l	knee_angle_l_beta	ankle_angle_l	subtalar_angle_l	mtp_angle_l	lumbar_extension	lumbar_bending	lumbar_rotation	arm_flex_r	arm_add_r	arm_rot_r	elbow_flex_r	pro_sup_r	wrist_flex_r	wrist_dev_r	arm_flex_l	arm_add_l	arm_rot_l	elbow_flex_l	pro_sup_l	wrist_flex_l	wrist_dev_l
      1.68500000	     10.94274863	     -5.85054686	      1.32898347	     -0.33641662	      0.91984701	     -1.05484359	     30.97450137	      4.33507579	     -2.28417247	      3.29563158	      0.05751962	    -10.25359165	      0.00000000	      0.00000000	     25.83789950	     -2.93859568	      0.68859906	     69.73046965	      1.21702628	     23.44385080	      0.00000000	      0.00000000	    -27.41445020	      1.40589396	      4.42243911	     89.43522177	     -0.26962404	     27.96857758	     32.42804226	     84.85700825	      0.00000000	      0.00000000	     89.82651531	    -13.10379031	     47.07109082	     48.97255095	     86.69263717	      0.00000000	      0.00000000
      1.69000000	     10.76691673	     -5.78110353	      1.23079457	     -0.33711831	      0.91820795	     -1.05467970	     31.31898212	      4.27553067	     -2.35535169	      3.28912171	      0.05740600	    -10.30242570	      0.00000000	      0.00000000	     26.22252319	     -2.90593336	      0.61543564	     70.01501997	      1.22199262	     23.57707327	      0.00000000	      0.00000000	    -27.35074771	      1.27399677	      4.46393958	     89.46912882	     -0.26736002	     27.74991246	     32.57863552	     84.75619189	      0.00000000	      0.00000000	     89.83394471	    -13.03103350	     46.62691047	     48.97355733	     86.76009019	      0.00000000	      0.00000000
      1.69500000	     10.69603517	     -5.86753717	      1.23632796	     -0.33764269	      0.91672034	     -1.05463388	     31.48317151	      4.31594184	     -2.41647719	      3.20799871	      0.05599014	    -10.27483404	      0.00000000	      0.00000000	     26.51849803	     -3.03626541	      0.62540061	     70.35407221	      1.22791020	     23.58140087	      0.00000000	      0.00000000	    -27.36920706	      1.33511491	      4.42851498	     89.51610805	     -0.09407091	     27.19987027	     32.59874278	     84.91289926	      0.00000000	      0.00000000	     89.83867448	    -13.02557100	     46.31906431	     48.95990378	     86.70576584	      0.00000000	      0.00000000
      1.70000000	     10.53862038	     -5.86833127	      1.21606740	     -0.33832968	      0.91513464	     -1.05458419	     31.80175920	      4.28489527	     -2.38238501	      3.24243629	      0.05659119	    -10.35755512	      0.00000000	      0.00000000	     26.89089301	     -3.03346616	      0.64682086	     70.64773793	      1.23303564	     23.67621175	      0.00000000	      0.00000000	    -27.30986112	      1.29122787	      4.44924134	     89.54794091	     -0.17198882	     27.17676280	     32.80868407	     84.92505761	      0.00000000	      0.00000000	     89.84323166	    -12.87818566	     45.95596847	     48.85727419	     86.72943316	      0.00000000	      0.00000000
      1.70500000	     10.51420958	     -5.87324322	      1.20472104	     -0.33889869	      0.91371030	     -1.05455567	     31.95981064	      4.26400877	     -2.54715942	      3.19206557	      0.05571205	    -10.38096897	      0.00000000	      0.00000000	     27.11554886	     -3.05365286	      0.64252931	     70.98039156	      1.23884154	     23.76854923	      0.00000000	      0.00000000	    -27.38349750	      1.24974940	      4.48559283	     89.59047850	     -0.19424824	     27.13944120	     32.93401782	     84.07846661	      0.00000000	      0.00000000	     89.84803144	    -12.70808415	     45.51640277	     48.76799296	     86.92055671	      0.00000000	      0.00000000
      1.71000000	     10.37540273	     -5.93171162	      1.14118416	     -0.33956900	      0.91216958	     -1.05436008	     32.18554152	      4.32498578	     -2.56919318	      3.06713035	      0.05353152	    -10.23658911	      0.00000000	      0.00000000	     27.47536398	     -3.19137941	      0.58312311	     71.29833480	      1.24439069	     23.77347213	      0.00000000	      0.00000000	    -27.33873880	      1.24811310	      4.50917508	     89.61579814	     -0.08702012	     26.93141295	     33.03578031	     82.58678375	      0.00000000	      0.00000000	     89.85445535	    -12.68693044	     45.41444920	     48.73755080	     85.30731107	      0.00000000	      0.00000000
      1.71500000	     10.33067494	     -5.95394268	      1.19548412	     -0.34008735	      0.91095463	     -1.05451442	     32.36131154	      4.26042786	     -2.66827175	      3.06136604	      0.05343092	    -10.48478890	      0.00000000	      0.00000000	     27.68656368	     -3.21151849	      0.60843737	     71.51302311	      1.24813771	     23.82204891	      0.00000000	      0.00000000	    -27.40501853	      1.26170783	      4.44352367	     89.63319674	     -0.06059369	     26.35648758	     33.18264896	     84.74501568	      0.00000000	      0.00000000	     89.85691751	    -12.57930067	     44.83490847	     48.64082756	     86.80980991	      0.00000000	      0.00000000
      1.72000000	     10.23139729	     -5.95410374	      1.20060925	     -0.34067816	      0.90942374	     -1.05446851	     32.61322675	      4.21886225	     -2.83457973	      3.06570240	      0.05350660	    -10.46902132	      0.00000000	      0.00000000	     28.00061104	     -3.24236305	      0.59708462	     71.83632618	      1.25378041	     23.90278507	      0.00000000	      0.00000000	    -27.38711453	      1.22084878	      4.46300468	     89.65576717	     -0.16383246	     26.44490551	     33.38933727	     84.15505779	      0.00000000	      0.00000000	     89.86001677	    -12.53353635	     44.69495727	     48.76687523	     86.90277811	      0.00000000	      0.00000000
      1.72500000	     10.06697760	     -5.92002522	      1.23036549	     -0.34117472	      0.90790856	     -1.05453897	     32.88516775	      4.12216360	     -2.89529036	      3.00258205	      0.05240494	    -10.44926860	      0.00000000	      0.00000000	     28.36161673	     -3.22195219	      0.58451406	     72.12192357	      1.25876503	     23.99410772	      0.00000000	      0.00000000	    -27.31626139	      1.16137842	      4.30656549	     89.67536413	     -0.01968984	     26.00768389	     33.44958484	     84.84444333	      0.00000000	      0.00000000	     89.86402609	    -12.41450404	     44.22922626	     48.51987356	     86.71131943	      0.00000000	      0.00000000
      1.73000000	      9.97240306	     -5.83980378	      1.16289130	     -0.34159180	      0.90642167	     -1.05420479	     33.09517076	      4.06049810	     -2.81770736	      2.96734194	      0.05178989	    -10.40268579	      0.00000000	      0.00000000	     28.62102051	     -3.26102307	      0.41803778	     72.38618260	      1.26337722	     24.08993037	      0.00000000	      0.00000000	    -27.28802325	      0.99079157	      4.30557934	     89.69200597	      0.06827306	     25.64938703	     33.45527727	     84.49685951	      0.00000000	      0.00000000	     89.86819991	    -12.34838489	     43.94676542	     48.47962163	     86.84577894	      0.00000000	      0.00000000
      1.73500000	      9.84743736	     -5.83090591	      1.15884671	     -0.34235403	      0.90509288	     -1.05422085	     33.36377697	      4.00039008	     -2.81918946	      2.95724065	      0.05161359	    -10.41306212	      0.00000000	      0.00000000	     28.94396889	     -3.28597445	      0.37407559	     72.66111080	      1.26817562	     24.10434856	      0.00000000	      0.00000000	    -27.29212413	      0.94634973	      4.25674293	     89.71118049	      0.13602641	     25.32212900	     33.56819825	     84.66289119	      0.00000000	      0.00000000	     89.87120767	    -12.24228255	     43.53673858	     48.38307477	     86.80181701	      0.00000000	      0.00000000
